<svg xmlns="http://www.w3.org/2000/svg" viewBox="0 0 232 44" fill="none" role="img" aria-label="SocialAPI.ai">
  <title>SocialAPI.ai</title>

  <!-- Icon mark (dark bg) -->
  <circle cx="22" cy="22" r="9" fill="#22c55e" fill-opacity="0.15"/>
  <polygon points="22,7 35,14.5 35,29.5 22,37 9,29.5 9,14.5"
           stroke="#ffffff" stroke-width="1" stroke-opacity="0.15" fill="none" stroke-linejoin="round"/>
  <line x1="22"  y1="7"    x2="22" y2="22" stroke="#d4d4d4" stroke-width="1.75" stroke-opacity="0.75"/>
  <line x1="35"  y1="14.5" x2="22" y2="22" stroke="#d4d4d4" stroke-width="1.75" stroke-opacity="0.75"/>
  <line x1="35"  y1="29.5" x2="22" y2="22" stroke="#d4d4d4" stroke-width="1.75" stroke-opacity="0.75"/>
  <line x1="22"  y1="37"   x2="22" y2="22" stroke="#d4d4d4" stroke-width="1.75" stroke-opacity="0.75"/>
  <line x1="9"   y1="29.5" x2="22" y2="22" stroke="#d4d4d4" stroke-width="1.75" stroke-opacity="0.75"/>
  <line x1="9"   y1="14.5" x2="22" y2="22" stroke="#d4d4d4" stroke-width="1.75" stroke-opacity="0.75"/>
  <circle cx="22"  cy="7"    r="3" fill="#e5e5e5"/>
  <circle cx="35"  cy="14.5" r="3" fill="#e5e5e5"/>
  <circle cx="35"  cy="29.5" r="3" fill="#e5e5e5"/>
  <circle cx="22"  cy="37"   r="3" fill="#e5e5e5"/>
  <circle cx="9"   cy="29.5" r="3" fill="#e5e5e5"/>
  <circle cx="9"   cy="14.5" r="3" fill="#e5e5e5"/>
  <circle cx="22" cy="22" r="5.5" fill="#22c55e"/>

  <!-- Wordmark (white on dark) -->
  <text x="56" y="29"
    font-family="Sora, 'Inter', system-ui, -apple-system, sans-serif"
    font-size="20" font-weight="700" letter-spacing="-0.4"
    fill="#fafafa">SocialAPI<tspan fill="#22c55e">.ai</tspan></text>
</svg>
